<svg width="24" height="24" viewBox="0 0 24 24" fill="none" xmlns="http://www.w3.org/2000/svg">
<path fill-rule="evenodd" clip-rule="evenodd" d="M3.9355 5H20.0645C20.5795 5 21.0005 5.421 21.0005 5.936V6.064C21.0005 6.579 20.5795 7 20.0645 7H3.9355C3.4205 7 3.0005 6.579 3.0005 6.064V5.936C3.0005 5.421 3.4205 5 3.9355 5ZM5 11C5 11.553 4.552 12 4 12C3.448 12 3 11.553 3 11C3 10.447 3.448 10 4 10C4.552 10 5 10.447 5 11ZM7.9355 10H20.0645C20.5795 10 21.0005 10.421 21.0005 10.936V11.064C21.0005 11.579 20.5795 12 20.0645 12H7.9355C7.4205 12 7.0005 11.579 7.0005 11.064V10.936C7.0005 10.421 7.4205 10 7.9355 10ZM20.0645 15H3.9355C3.4205 15 3.0005 15.421 3.0005 15.936V16.064C3.0005 16.579 3.4205 17 3.9355 17H20.0645C20.5795 17 21.0005 16.579 21.0005 16.064V15.936C21.0005 15.421 20.5795 15 20.0645 15Z" fill="white"/>
</svg>
