<svg width="533" height="178" viewBox="0 0 533 178" fill="none" xmlns="http://www.w3.org/2000/svg">
<path d="M203.4 6.22477L143.993 51.9616C142.304 53.2615 141.315 55.2708 141.315 57.4002V124.285C141.315 128.078 144.393 131.152 148.19 131.152H265.81C269.607 131.152 272.685 128.078 272.685 124.285V57.3604C272.685 55.2536 271.717 53.2629 270.058 51.9616L211.845 6.2646C209.371 4.32262 205.892 4.30614 203.4 6.22477Z" fill="#5678D0"/>
<path d="M194.168 90.8332L203.424 83.7726C205.907 81.8787 209.356 81.8945 211.821 83.8117L220.368 90.4596L260.281 62.6621V28.3279C260.281 24.5353 257.203 21.4609 253.406 21.4609H160.594C156.797 21.4609 153.719 24.5353 153.719 28.3279V62.6621L194.168 90.8332Z" fill="#F1F2F2"/>
<path d="M157.844 60.6573C157.085 60.6573 156.469 60.042 156.469 59.2839V37.3095C156.469 36.5514 157.085 35.9361 157.844 35.9361C158.603 35.9361 159.219 36.5514 159.219 37.3095V59.2839C159.219 60.0427 158.603 60.6573 157.844 60.6573ZM157.844 33.1893C157.085 33.1893 156.469 32.5741 156.469 31.816V31.1293C156.469 30.3711 157.085 29.7559 157.844 29.7559C158.603 29.7559 159.219 30.3711 159.219 31.1293V31.816C159.219 32.5748 158.603 33.1893 157.844 33.1893Z" fill="white"/>
<path d="M220.368 90.4603L260.281 62.6621V28.3279C260.281 24.5353 257.203 21.4609 253.406 21.4609V62.6621L217.12 87.9339L220.368 90.4603Z" fill="#F2F2F2"/>
<path d="M256.844 62.6623L218.744 89.197L220.368 90.4598L260.281 62.6623V28.3281C260.281 25.5428 258.617 23.1497 256.232 22.0723C256.621 22.9341 256.844 23.8872 256.844 24.8946V62.6623Z" fill="#D1D3D4"/>
<path d="M143.613 129.398L194.169 90.8322L141.974 54.4805C141.549 55.3828 141.315 56.3758 141.315 57.3989V124.284C141.315 126.319 142.206 128.141 143.613 129.398Z" fill="#3456AF"/>
<path d="M220.368 90.4592L270.407 129.38C271.803 128.123 272.685 126.309 272.685 124.285V57.359C272.685 56.3474 272.457 55.3648 272.041 54.4707L220.368 90.4592Z" fill="#3456AF"/>
<path d="M220.368 90.4592L270.407 129.38C271.803 128.123 272.685 126.309 272.685 124.285V57.359C272.685 56.3474 272.457 55.3648 272.041 54.4707L220.368 90.4592Z" fill="#3456AF"/>
<path d="M272.041 54.4707L269.181 56.4628C269.221 56.7588 269.248 57.0568 269.248 57.3596V124.285C269.248 125.549 268.904 126.731 268.306 127.746L270.408 129.38C271.803 128.124 272.686 126.31 272.686 124.285V57.359C272.686 56.3474 272.457 55.3655 272.041 54.4707Z" fill="#3456AF"/>
<path d="M269.25 46.6648C269.193 46.6167 269.135 46.5706 269.077 46.5238C269.068 46.517 269.06 46.5108 269.051 46.5039C269.126 46.5644 269.2 46.6263 269.274 46.6881L269.276 46.6868C269.267 46.6799 269.259 46.6717 269.25 46.6648Z" fill="#1C46C4"/>
<path d="M211.821 83.8141C209.356 81.8968 205.907 81.881 203.423 83.7749L143.612 129.401C144.828 130.488 146.429 131.154 148.189 131.154H265.809C267.58 131.154 269.188 130.481 270.407 129.383L211.821 83.8141Z" fill="#5678D0"/>
<path d="M265.81 127.722H148.19C147.498 127.722 146.833 127.615 146.204 127.425L143.612 129.402C144.828 130.489 146.429 131.155 148.189 131.155H265.809C267.58 131.155 269.188 130.482 270.407 129.383L267.86 127.402C267.213 127.607 266.526 127.722 265.81 127.722Z" fill="#3456AF"/>
<path d="M220.181 40.4574C216.27 36.7856 211.156 34.9432 205.774 35.2818C196.12 35.8806 188.387 43.6032 187.789 53.2465C187.455 58.6192 189.295 63.7303 192.971 67.6369C196.596 71.4886 201.709 73.6984 207 73.6984C207.759 73.6984 208.375 73.0831 208.375 72.325C208.375 71.5669 207.759 70.9516 207 70.9516C202.399 70.9516 198.127 69.1057 194.974 65.7553C191.824 62.407 190.246 58.0252 190.533 53.4168C191.047 45.1537 197.672 38.536 205.945 38.0231C210.559 37.7381 214.946 39.312 218.298 42.4591C221.652 45.6083 223.5 49.8741 223.5 54.4708V64.0846C223.5 66.3569 221.65 68.2048 219.375 68.2048C217.1 68.2048 215.25 66.3569 215.25 64.0846V44.8571C215.25 44.099 214.634 43.4837 213.875 43.4837H207C202.451 43.4837 198.75 47.1802 198.75 51.7241V57.2176C198.75 61.7615 202.451 65.458 207 65.458C209.114 65.458 211.039 64.6532 212.5 63.3423V64.0846C212.5 67.8711 215.584 70.9516 219.375 70.9516C223.166 70.9516 226.25 67.8711 226.25 64.0846V54.4708C226.25 49.186 224.038 44.0777 220.181 40.4574ZM207 62.7112C203.968 62.7112 201.5 60.2467 201.5 57.2176V51.7241C201.5 48.695 203.968 46.2305 207 46.2305H212.5V57.2176C212.5 60.2467 210.033 62.7112 207 62.7112Z" fill="#191919"/>
<path d="M25.7254 130.189C24.8497 128.451 24.2436 126.65 23.88 124.83L20.1978 126.681C17.4246 128.075 16.3074 131.451 17.703 134.221C19.0987 136.991 22.4791 138.107 25.2523 136.713L28.9346 134.862C27.689 133.487 26.601 131.927 25.7254 130.189Z" fill="#FFC91D"/>
<path d="M25.7247 130.188C24.8491 128.45 24.2425 126.649 23.8794 124.829L22.6829 125.431C22.5255 125.51 22.3743 125.597 22.2277 125.69C22.5924 127.5 23.1965 129.293 24.0676 131.021C24.6463 132.17 25.3253 133.233 26.0733 134.225L24.4169 135.058C21.9262 136.31 18.9511 135.533 17.3584 133.357C17.4495 133.649 17.5594 133.939 17.7016 134.221C19.0972 136.991 22.4776 138.107 25.2509 136.713L28.9331 134.862C27.6884 133.486 26.6004 131.926 25.7247 130.188Z" fill="#FFA91A"/>
<path d="M80.0186 157.763L75.1979 160.186C72.9102 161.336 70.1214 160.416 68.9701 158.131L58.4854 137.32L71.5919 130.732L82.0766 151.543C83.2283 153.829 82.3071 156.613 80.0186 157.763Z" fill="#FFC91D"/>
<path d="M67.4489 132.815L75.8488 149.487C77.0001 151.772 76.0785 154.558 73.7908 155.708L68.9701 158.131C70.1214 160.416 72.9102 161.336 75.1979 160.186L80.0186 157.763C82.3063 156.613 83.2279 153.828 82.0766 151.543L71.5919 130.732L67.4489 132.815Z" fill="#FFA91A"/>
<path d="M95.7427 80.2168L107.621 103.793C114.139 100.517 116.764 92.5829 113.484 86.0721C110.204 79.5612 102.261 76.9403 95.7427 80.2168Z" fill="#58595B"/>
<path d="M102.581 78.8528C104.511 80.0867 106.152 81.8256 107.257 84.0188C109.803 89.0706 108.78 94.9706 105.153 98.8951L107.622 103.795C114.14 100.518 116.765 92.5845 113.485 86.0737C111.309 81.756 107.082 79.1636 102.581 78.8528Z" fill="#414042"/>
<path d="M81.1577 125.921L54.0622 139.541C43.6519 144.774 30.9651 140.587 25.7259 130.188C20.487 119.789 24.6797 107.117 35.09 101.884L62.1855 88.2648L81.1577 125.921Z" fill="#FFC91D"/>
<path d="M81.1577 125.921L54.0622 139.541C43.6519 144.774 30.9651 140.587 25.7259 130.188C20.487 119.789 24.6797 107.117 35.09 101.884L62.1855 88.2648L81.1577 125.921Z" fill="#F79219"/>
<path d="M58.0429 90.3491L72.8454 119.729C73.9966 122.014 73.075 124.8 70.7873 125.95L47.8348 137.487C43.6869 139.572 39.1779 140.157 34.9225 139.454C40.7154 142.425 47.8001 142.69 54.0625 139.543L81.158 125.923L62.1858 88.2667L58.0429 90.3491Z" fill="#EF7816"/>
<path d="M81.1559 125.922L112.601 129.679C116.274 130.118 118.958 126.298 117.295 122.997L86.0688 61.0187C84.4063 57.719 79.7342 57.5947 77.8994 60.8019L62.1837 88.2652L81.1559 125.922Z" fill="#F2F2F2"/>
<path d="M79.8418 58.9637L108.983 116.804C110.646 120.104 107.962 123.926 104.29 123.486L78.3689 120.389L81.1567 125.922L112.602 129.68C116.275 130.119 118.959 126.298 117.296 122.998L86.0696 61.0194C84.8462 58.5911 81.9953 57.8896 79.8418 58.9637Z" fill="#D1D3D4"/>
<path fill-rule="evenodd" clip-rule="evenodd" d="M299 65C294.582 65 291 68.5817 291 73V80.5L283 88.5L291 96.5V123C291 127.418 294.582 131 299 131H525C529.418 131 533 127.418 533 123V73C533 68.5817 529.418 65 525 65H299Z" fill="#3456AF"/>
<path d="M304.232 80.608H309.176C310.403 80.608 311.368 80.9013 312.072 81.488C312.787 82.064 313.144 82.928 313.144 84.08C313.144 85.168 312.813 86.032 312.152 86.672C311.491 87.3013 310.589 87.616 309.448 87.616H306.232V92H304.232V80.608ZM306.232 82.272V86H309.016C310.467 86 311.192 85.376 311.192 84.128C311.192 82.8907 310.408 82.272 308.84 82.272H306.232ZM314.552 86.288C314.744 84.4213 315.949 83.488 318.168 83.488C319.203 83.488 320.024 83.6907 320.632 84.096C321.251 84.5013 321.56 85.1307 321.56 85.984V90.176C321.56 90.4107 321.587 90.5707 321.64 90.656C321.704 90.7413 321.821 90.784 321.992 90.784C322.12 90.784 322.259 90.7733 322.408 90.752V92.032C321.939 92.1493 321.544 92.208 321.224 92.208C320.445 92.208 319.997 91.8773 319.88 91.216C319.187 91.8773 318.221 92.208 316.984 92.208C316.131 92.208 315.453 91.9893 314.952 91.552C314.451 91.104 314.2 90.5013 314.2 89.744C314.2 89.5093 314.227 89.2907 314.28 89.088C314.333 88.8853 314.392 88.7093 314.456 88.56C314.531 88.4107 314.643 88.272 314.792 88.144C314.952 88.016 315.08 87.9093 315.176 87.824C315.283 87.7387 315.448 87.6587 315.672 87.584C315.907 87.5093 316.077 87.456 316.184 87.424C316.301 87.3813 316.499 87.3387 316.776 87.296C317.053 87.2533 317.235 87.2267 317.32 87.216C317.416 87.1947 317.608 87.168 317.896 87.136C318.547 87.0507 318.989 86.9813 319.224 86.928C319.459 86.864 319.619 86.7733 319.704 86.656C319.779 86.5707 319.816 86.3733 319.816 86.064C319.816 85.232 319.251 84.816 318.12 84.816C317.523 84.816 317.085 84.928 316.808 85.152C316.531 85.376 316.355 85.7547 316.28 86.288H314.552ZM319.8 87.856C319.661 87.9307 319.501 88 319.32 88.064C319.139 88.1173 318.989 88.1547 318.872 88.176C318.765 88.1867 318.589 88.208 318.344 88.24C318.109 88.272 317.955 88.2933 317.88 88.304C317.656 88.336 317.48 88.368 317.352 88.4C317.224 88.4213 317.064 88.464 316.872 88.528C316.691 88.592 316.547 88.672 316.44 88.768C316.344 88.8533 316.259 88.976 316.184 89.136C316.109 89.2853 316.072 89.4667 316.072 89.68C316.072 90.0747 316.2 90.3787 316.456 90.592C316.723 90.8053 317.091 90.912 317.56 90.912C318.371 90.912 318.995 90.6933 319.432 90.256C319.677 90.0107 319.8 89.536 319.8 88.832V87.856ZM331.01 88.88C330.883 89.8933 330.477 90.704 329.795 91.312C329.112 91.9093 328.253 92.208 327.219 92.208C325.981 92.208 324.995 91.8187 324.259 91.04C323.523 90.2507 323.155 89.2213 323.155 87.952C323.155 86.5867 323.523 85.504 324.259 84.704C325.005 83.8933 326.008 83.488 327.266 83.488C328.323 83.488 329.171 83.7547 329.811 84.288C330.461 84.8213 330.84 85.5627 330.947 86.512H329.139C329.032 85.9893 328.819 85.5893 328.499 85.312C328.179 85.0347 327.773 84.896 327.283 84.896C326.579 84.896 326.024 85.1627 325.619 85.696C325.213 86.2187 325.011 86.9387 325.011 87.856C325.011 88.7733 325.203 89.488 325.587 90C325.981 90.512 326.525 90.768 327.219 90.768C327.763 90.768 328.205 90.608 328.547 90.288C328.899 89.9573 329.123 89.488 329.219 88.88H331.01ZM339.901 88.88C339.773 89.8933 339.368 90.704 338.685 91.312C338.002 91.9093 337.144 92.208 336.109 92.208C334.872 92.208 333.885 91.8187 333.149 91.04C332.413 90.2507 332.045 89.2213 332.045 87.952C332.045 86.5867 332.413 85.504 333.149 84.704C333.896 83.8933 334.898 83.488 336.157 83.488C337.213 83.488 338.061 83.7547 338.701 84.288C339.352 84.8213 339.73 85.5627 339.837 86.512H338.029C337.922 85.9893 337.709 85.5893 337.389 85.312C337.069 85.0347 336.664 84.896 336.173 84.896C335.469 84.896 334.914 85.1627 334.509 85.696C334.104 86.2187 333.901 86.9387 333.901 87.856C333.901 88.7733 334.093 89.488 334.477 90C334.872 90.512 335.416 90.768 336.109 90.768C336.653 90.768 337.096 90.608 337.437 90.288C337.789 89.9573 338.013 89.488 338.109 88.88H339.901ZM349.192 83.744H351.016V92H349.192V83.744ZM347.32 87.44C347.81 87.8987 348.056 88.5387 348.056 89.36C348.056 90.1813 347.81 90.8267 347.32 91.296C346.829 91.7653 346.141 92 345.256 92H341.224V83.744H343.048V86.736H345.24C346.136 86.736 346.829 86.9707 347.32 87.44ZM346.232 89.392C346.232 89.0187 346.125 88.72 345.912 88.496C345.698 88.272 345.4 88.16 345.016 88.16H343.048V90.576H345.048C345.442 90.576 345.736 90.4693 345.928 90.256C346.13 90.032 346.232 89.744 346.232 89.392ZM360.147 92H358.323V85.184H355.795L355.683 88.8C355.651 89.8773 355.416 90.7147 354.979 91.312C354.552 91.8987 353.965 92.192 353.219 92.192C352.76 92.192 352.387 92.1333 352.099 92.016V90.592C352.205 90.6453 352.424 90.672 352.755 90.672C353.48 90.672 353.864 89.9893 353.907 88.624L354.051 83.744H360.147V92ZM369.75 92H367.542L364.95 88.304L363.862 89.44V92H362.038V83.744H363.862V87.408L367.158 83.744H369.382L366.166 87.056L369.75 92ZM370.552 86.288C370.744 84.4213 371.949 83.488 374.168 83.488C375.203 83.488 376.024 83.6907 376.632 84.096C377.251 84.5013 377.56 85.1307 377.56 85.984V90.176C377.56 90.4107 377.587 90.5707 377.64 90.656C377.704 90.7413 377.821 90.784 377.992 90.784C378.12 90.784 378.259 90.7733 378.408 90.752V92.032C377.939 92.1493 377.544 92.208 377.224 92.208C376.445 92.208 375.997 91.8773 375.88 91.216C375.187 91.8773 374.221 92.208 372.984 92.208C372.131 92.208 371.453 91.9893 370.952 91.552C370.451 91.104 370.2 90.5013 370.2 89.744C370.2 89.5093 370.227 89.2907 370.28 89.088C370.333 88.8853 370.392 88.7093 370.456 88.56C370.531 88.4107 370.643 88.272 370.792 88.144C370.952 88.016 371.08 87.9093 371.176 87.824C371.283 87.7387 371.448 87.6587 371.672 87.584C371.907 87.5093 372.077 87.456 372.184 87.424C372.301 87.3813 372.499 87.3387 372.776 87.296C373.053 87.2533 373.235 87.2267 373.32 87.216C373.416 87.1947 373.608 87.168 373.896 87.136C374.547 87.0507 374.989 86.9813 375.224 86.928C375.459 86.864 375.619 86.7733 375.704 86.656C375.779 86.5707 375.816 86.3733 375.816 86.064C375.816 85.232 375.251 84.816 374.12 84.816C373.523 84.816 373.085 84.928 372.808 85.152C372.531 85.376 372.355 85.7547 372.28 86.288H370.552ZM375.8 87.856C375.661 87.9307 375.501 88 375.32 88.064C375.139 88.1173 374.989 88.1547 374.872 88.176C374.765 88.1867 374.589 88.208 374.344 88.24C374.109 88.272 373.955 88.2933 373.88 88.304C373.656 88.336 373.48 88.368 373.352 88.4C373.224 88.4213 373.064 88.464 372.872 88.528C372.691 88.592 372.547 88.672 372.44 88.768C372.344 88.8533 372.259 88.976 372.184 89.136C372.109 89.2853 372.072 89.4667 372.072 89.68C372.072 90.0747 372.2 90.3787 372.456 90.592C372.723 90.8053 373.091 90.912 373.56 90.912C374.371 90.912 374.995 90.6933 375.432 90.256C375.677 90.0107 375.8 89.536 375.8 88.832V87.856ZM385.8 92H383.976V83.744H385.8V86.976H389.416V83.744H391.24V92H389.416V88.416H385.8V92ZM396.987 83.504C398.246 83.504 399.248 83.8987 399.995 84.688C400.742 85.4773 401.115 86.5387 401.115 87.872C401.115 89.216 400.742 90.2827 399.995 91.072C399.259 91.8613 398.256 92.256 396.987 92.256C395.696 92.256 394.672 91.8613 393.915 91.072C393.158 90.2827 392.779 89.216 392.779 87.872C392.779 86.5387 393.158 85.4773 393.915 84.688C394.683 83.8987 395.707 83.504 396.987 83.504ZM398.651 85.728C398.246 85.2053 397.68 84.944 396.955 84.944C396.23 84.944 395.659 85.2053 395.243 85.728C394.827 86.2507 394.619 86.9653 394.619 87.872C394.619 88.8 394.827 89.5253 395.243 90.048C395.659 90.5707 396.235 90.832 396.971 90.832C397.686 90.832 398.246 90.5707 398.651 90.048C399.067 89.5147 399.275 88.784 399.275 87.856C399.275 86.9493 399.067 86.24 398.651 85.728ZM410.024 89.664C410.024 90.4107 409.757 90.9867 409.224 91.392C408.701 91.7973 407.954 92 406.984 92H402.648V83.744H407.208C407.976 83.744 408.573 83.92 409 84.272C409.437 84.624 409.656 85.12 409.656 85.76C409.656 86.1973 409.56 86.5493 409.368 86.816C409.176 87.0827 408.877 87.312 408.472 87.504V87.536C409.506 87.8027 410.024 88.512 410.024 89.664ZM406.984 88.352H404.472V90.624H406.984C407.805 90.624 408.216 90.2507 408.216 89.504C408.216 89.1413 408.109 88.8587 407.896 88.656C407.682 88.4533 407.378 88.352 406.984 88.352ZM406.744 85.12H404.472V87.024H406.792C407.496 87.024 407.848 86.6933 407.848 86.032C407.848 85.424 407.48 85.12 406.744 85.12ZM415.362 83.504C416.621 83.504 417.623 83.8987 418.37 84.688C419.117 85.4773 419.49 86.5387 419.49 87.872C419.49 89.216 419.117 90.2827 418.37 91.072C417.634 91.8613 416.631 92.256 415.362 92.256C414.071 92.256 413.047 91.8613 412.29 91.072C411.533 90.2827 411.154 89.216 411.154 87.872C411.154 86.5387 411.533 85.4773 412.29 84.688C413.058 83.8987 414.082 83.504 415.362 83.504ZM417.026 85.728C416.621 85.2053 416.055 84.944 415.33 84.944C414.605 84.944 414.034 85.2053 413.618 85.728C413.202 86.2507 412.994 86.9653 412.994 87.872C412.994 88.8 413.202 89.5253 413.618 90.048C414.034 90.5707 414.61 90.832 415.346 90.832C416.061 90.832 416.621 90.5707 417.026 90.048C417.442 89.5147 417.65 88.784 417.65 87.856C417.65 86.9493 417.442 86.24 417.026 85.728ZM428.51 88.88C428.383 89.8933 427.977 90.704 427.295 91.312C426.612 91.9093 425.753 92.208 424.719 92.208C423.481 92.208 422.495 91.8187 421.759 91.04C421.023 90.2507 420.655 89.2213 420.655 87.952C420.655 86.5867 421.023 85.504 421.759 84.704C422.505 83.8933 423.508 83.488 424.766 83.488C425.823 83.488 426.671 83.7547 427.311 84.288C427.961 84.8213 428.34 85.5627 428.447 86.512H426.639C426.532 85.9893 426.319 85.5893 425.999 85.312C425.679 85.0347 425.273 84.896 424.783 84.896C424.079 84.896 423.524 85.1627 423.119 85.696C422.713 86.2187 422.511 86.9387 422.511 87.856C422.511 88.7733 422.703 89.488 423.087 90C423.481 90.512 424.025 90.768 424.719 90.768C425.263 90.768 425.705 90.608 426.047 90.288C426.399 89.9573 426.623 89.488 426.719 88.88H428.51ZM436.11 85.184H433.39V92H431.566V85.184H428.846V83.744H436.11V85.184ZM444.258 89.424C444.056 90.32 443.613 91.0187 442.93 91.52C442.258 92.0213 441.453 92.272 440.514 92.272C439.266 92.272 438.274 91.872 437.538 91.072C436.813 90.2613 436.45 89.2267 436.45 87.968C436.45 86.6773 436.824 85.6107 437.57 84.768C438.328 83.9253 439.288 83.504 440.45 83.504C441.656 83.504 442.61 83.92 443.314 84.752C444.018 85.5733 444.37 86.6987 444.37 88.128V88.32H438.274C438.296 89.152 438.504 89.7973 438.898 90.256C439.293 90.704 439.842 90.928 440.546 90.928C441.048 90.928 441.453 90.8107 441.762 90.576C442.082 90.3307 442.333 89.9467 442.514 89.424H444.258ZM442.546 87.104C442.493 86.4107 442.274 85.8667 441.89 85.472C441.517 85.0667 441.032 84.864 440.434 84.864C439.837 84.864 439.352 85.056 438.978 85.44C438.616 85.824 438.392 86.3787 438.306 87.104H442.546ZM452.013 80.336C451.928 81.104 451.672 81.6747 451.245 82.048C450.818 82.4107 450.2 82.592 449.389 82.592C448.578 82.592 447.96 82.4107 447.533 82.048C447.106 81.6747 446.85 81.104 446.765 80.336H447.693C447.896 81.1467 448.461 81.552 449.389 81.552C450.317 81.552 450.882 81.1467 451.085 80.336H452.013ZM448.061 92H445.757V83.744H447.581V89.76H447.629L450.717 83.744H453.021V92H451.197V85.984H451.149L448.061 92ZM461.702 92H459.398V83.744H461.222V89.76H461.27L464.358 83.744H466.661V92H464.838V85.984H464.79L461.702 92ZM307.784 104.504C309.043 104.504 310.045 104.899 310.792 105.688C311.539 106.477 311.912 107.539 311.912 108.872C311.912 110.216 311.539 111.283 310.792 112.072C310.056 112.861 309.053 113.256 307.784 113.256C306.493 113.256 305.469 112.861 304.712 112.072C303.955 111.283 303.576 110.216 303.576 108.872C303.576 107.539 303.955 106.477 304.712 105.688C305.48 104.899 306.504 104.504 307.784 104.504ZM309.448 106.728C309.043 106.205 308.477 105.944 307.752 105.944C307.027 105.944 306.456 106.205 306.04 106.728C305.624 107.251 305.416 107.965 305.416 108.872C305.416 109.8 305.624 110.525 306.04 111.048C306.456 111.571 307.032 111.832 307.768 111.832C308.483 111.832 309.043 111.571 309.448 111.048C309.864 110.515 310.072 109.784 310.072 108.856C310.072 107.949 309.864 107.24 309.448 106.728ZM321.38 108.968C321.38 110.259 321.018 111.293 320.292 112.072C319.567 112.84 318.602 113.224 317.396 113.224C315.54 113.224 314.292 112.461 313.652 110.936C313.375 110.296 313.236 109.427 313.236 108.328C313.236 106.163 313.583 104.547 314.276 103.48C314.639 102.925 315.082 102.515 315.604 102.248C316.127 101.971 316.788 101.805 317.588 101.752C317.684 101.741 317.812 101.731 317.972 101.72C318.143 101.709 318.26 101.704 318.324 101.704C318.399 101.693 318.49 101.683 318.596 101.672C318.714 101.651 318.794 101.635 318.836 101.624C318.89 101.603 318.948 101.581 319.012 101.56C319.076 101.528 319.124 101.491 319.156 101.448C319.188 101.405 319.22 101.357 319.252 101.304H321.076C321.044 101.496 320.996 101.672 320.932 101.832C320.879 101.992 320.82 102.131 320.756 102.248C320.692 102.365 320.596 102.472 320.468 102.568C320.351 102.664 320.25 102.744 320.164 102.808C320.09 102.872 319.967 102.931 319.796 102.984C319.626 103.037 319.492 103.08 319.396 103.112C319.3 103.133 319.146 103.16 318.932 103.192C318.719 103.213 318.559 103.229 318.452 103.24C318.356 103.251 318.18 103.267 317.924 103.288C317.679 103.299 317.503 103.309 317.396 103.32C315.924 103.437 314.959 104.472 314.5 106.424H314.548C314.9 105.859 315.311 105.437 315.78 105.16C316.25 104.872 316.868 104.728 317.636 104.728C318.703 104.728 319.594 105.117 320.308 105.896C321.023 106.675 321.38 107.699 321.38 108.968ZM319.556 108.968C319.556 108.125 319.348 107.448 318.932 106.936C318.527 106.424 317.988 106.168 317.316 106.168C316.644 106.168 316.1 106.424 315.684 106.936C315.279 107.437 315.076 108.115 315.076 108.968C315.076 109.821 315.279 110.504 315.684 111.016C316.1 111.528 316.644 111.784 317.316 111.784C317.988 111.784 318.527 111.528 318.932 111.016C319.348 110.504 319.556 109.821 319.556 108.968ZM324.753 113H322.929V104.744H324.753V107.976H328.369V104.744H330.193V113H328.369V109.416H324.753V113ZM335.94 104.504C337.199 104.504 338.202 104.899 338.948 105.688C339.695 106.477 340.068 107.539 340.068 108.872C340.068 110.216 339.695 111.283 338.948 112.072C338.212 112.861 337.21 113.256 335.94 113.256C334.65 113.256 333.626 112.861 332.868 112.072C332.111 111.283 331.732 110.216 331.732 108.872C331.732 107.539 332.111 106.477 332.868 105.688C333.636 104.899 334.66 104.504 335.94 104.504ZM337.604 106.728C337.199 106.205 336.634 105.944 335.908 105.944C335.183 105.944 334.612 106.205 334.196 106.728C333.78 107.251 333.572 107.965 333.572 108.872C333.572 109.8 333.78 110.525 334.196 111.048C334.612 111.571 335.188 111.832 335.924 111.832C336.639 111.832 337.199 111.571 337.604 111.048C338.02 110.515 338.228 109.784 338.228 108.856C338.228 107.949 338.02 107.24 337.604 106.728ZM348.977 110.664C348.977 111.411 348.71 111.987 348.177 112.392C347.654 112.797 346.907 113 345.937 113H341.601V104.744H346.161C346.929 104.744 347.526 104.92 347.953 105.272C348.39 105.624 348.609 106.12 348.609 106.76C348.609 107.197 348.513 107.549 348.321 107.816C348.129 108.083 347.83 108.312 347.425 108.504V108.536C348.459 108.803 348.977 109.512 348.977 110.664ZM345.937 109.352H343.425V111.624H345.937C346.758 111.624 347.169 111.251 347.169 110.504C347.169 110.141 347.062 109.859 346.849 109.656C346.635 109.453 346.331 109.352 345.937 109.352ZM345.697 106.12H343.425V108.024H345.745C346.449 108.024 346.801 107.693 346.801 107.032C346.801 106.424 346.433 106.12 345.697 106.12ZM357.506 113H355.682V106.184H353.154L353.042 109.8C353.01 110.877 352.775 111.715 352.338 112.312C351.911 112.899 351.325 113.192 350.578 113.192C350.119 113.192 349.746 113.133 349.458 113.016V111.592C349.565 111.645 349.783 111.672 350.114 111.672C350.839 111.672 351.223 110.989 351.266 109.624L351.41 104.744H357.506V113ZM366.79 110.424C366.587 111.32 366.144 112.019 365.462 112.52C364.79 113.021 363.984 113.272 363.046 113.272C361.798 113.272 360.806 112.872 360.07 112.072C359.344 111.261 358.982 110.227 358.982 108.968C358.982 107.677 359.355 106.611 360.102 105.768C360.859 104.925 361.819 104.504 362.982 104.504C364.187 104.504 365.142 104.92 365.846 105.752C366.55 106.573 366.902 107.699 366.902 109.128V109.32H360.806C360.827 110.152 361.035 110.797 361.43 111.256C361.824 111.704 362.374 111.928 363.078 111.928C363.579 111.928 363.984 111.811 364.294 111.576C364.614 111.331 364.864 110.947 365.046 110.424H366.79ZM365.078 108.104C365.024 107.411 364.806 106.867 364.422 106.472C364.048 106.067 363.563 105.864 362.966 105.864C362.368 105.864 361.883 106.056 361.51 106.44C361.147 106.824 360.923 107.379 360.838 108.104H365.078ZM370.112 113H368.288V104.744H370.112V107.976H373.728V104.744H375.552V113H373.728V109.416H370.112V113ZM379.78 113H377.476V104.744H379.3V110.76H379.348L382.436 104.744H384.74V113H382.916V106.984H382.868L379.78 113ZM392.919 101.336C392.834 102.104 392.578 102.675 392.151 103.048C391.724 103.411 391.106 103.592 390.295 103.592C389.484 103.592 388.866 103.411 388.439 103.048C388.012 102.675 387.756 102.104 387.671 101.336H388.599C388.802 102.147 389.367 102.552 390.295 102.552C391.223 102.552 391.788 102.147 391.991 101.336H392.919ZM388.967 113H386.663V104.744H388.487V110.76H388.535L391.623 104.744H393.927V113H392.103V106.984H392.055L388.967 113Z" fill="#F2F2F2"/>
</svg>
