<svg width="24" height="24" viewBox="0 0 24 24" fill="none" xmlns="http://www.w3.org/2000/svg">
<path fill-rule="evenodd" clip-rule="evenodd" d="M14 8C14 6.897 13.103 6 12 6C10.897 6 10 6.897 10 8C10 9.103 10.897 10 12 10C13.103 10 14 9.103 14 8ZM16 8C16 10.206 14.206 12 12 12C9.794 12 8 10.206 8 8C8 5.794 9.794 4 12 4C14.206 4 16 5.794 16 8ZM5 20C5 16.14 8.141 13 12 13C15.859 13 19 16.14 19 20C19 20.552 18.553 21 18 21C17.447 21 17 20.552 17 20C17 17.243 14.757 15 12 15C9.243 15 7 17.243 7 20C7 20.552 6.553 21 6 21C5.447 21 5 20.552 5 20Z" fill="#191919"/>
</svg>
